<?xml version="1.0" standalone="no"?>
<!DOCTYPE svg PUBLIC "-//W3C//DTD SVG 20010904//EN"
 "http://www.w3.org/TR/2001/REC-SVG-20010904/DTD/svg10.dtd">
<svg version="1.0" xmlns="http://www.w3.org/2000/svg"
 width="512.000000pt" height="512.000000pt" viewBox="0 0 512.000000 512.000000"
 preserveAspectRatio="xMidYMid meet">

<g transform="translate(0.000000,512.000000) scale(0.100000,-0.100000)"
fill="#000000" stroke="none">
<path d="M2194 4646 c-107 -26 -173 -86 -208 -188 -17 -53 -36 -189 -36 -263
l1 -50 375 -218 c207 -120 378 -216 381 -213 9 9 63 209 58 216 -2 4 -54 37
-115 74 l-110 68 0 119 0 119 201 0 200 0 -33 46 c-47 66 -170 179 -241 220
-105 62 -190 84 -314 83 -59 0 -131 -6 -159 -13z"/>
<path d="M2580 4180 l0 -90 63 -40 62 -39 17 37 c22 47 32 128 23 181 l-7 41
-79 0 -79 0 0 -90z"/>
<path d="M2055 4001 c62 -113 170 -179 308 -188 57 -4 79 -2 72 5 -12 12 -365
219 -391 229 -14 5 -11 -4 11 -46z"/>
<path d="M1755 3897 c-109 -36 -181 -101 -277 -247 -130 -197 -210 -390 -259
-625 -27 -127 -30 -229 -10 -300 21 -70 105 -154 186 -184 33 -13 207 -64 388
-113 180 -50 327 -94 327 -98 0 -4 -76 -168 -170 -364 -93 -197 -174 -375
-180 -396 -13 -49 -1 -108 33 -159 72 -109 251 -107 325 3 11 17 123 247 248
511 252 532 255 542 212 624 -43 83 -60 91 -443 197 -192 53 -354 100 -358
104 -16 14 114 332 190 464 12 23 23 46 23 51 0 6 -43 26 -96 44 -143 51 -184
95 -184 199 0 57 27 104 79 139 58 39 95 40 199 4 52 -18 96 -30 99 -28 3 3 2
20 -2 37 -9 41 -58 96 -109 122 -51 26 -164 34 -221 15z"/>
<path d="M1821 3713 c-48 -24 -76 -88 -62 -141 6 -21 21 -48 34 -60 15 -14
279 -117 688 -268 730 -270 713 -265 771 -206 52 51 54 134 4 181 -28 26
-1333 511 -1375 511 -14 0 -41 -8 -60 -17z"/>
<path d="M3370 3236 c-30 -9 -44 -17 -41 -27 2 -8 6 -40 9 -72 4 -58 5 -58 35
-55 29 3 31 0 93 -129 l63 -133 -498 0 -498 0 -19 -47 c-11 -27 -20 -51 -22
-54 -1 -3 11 -12 27 -19 43 -17 105 -88 126 -143 12 -32 16 -65 13 -109 -3
-58 -23 -103 -237 -556 -129 -271 -245 -507 -258 -525 -34 -46 -96 -84 -160
-97 -171 -36 -331 113 -310 289 4 33 56 153 168 389 89 188 160 344 158 346
-2 2 -137 40 -300 85 l-295 81 -495 0 -494 -1 -113 -179 -114 -179 -81 -3 -82
-3 0 -90 0 -90 83 -3 c81 -3 84 -2 131 32 68 50 202 112 296 137 115 30 298
31 418 1 98 -24 211 -73 284 -123 117 -80 238 -218 302 -346 33 -67 75 -201
84 -270 l5 -43 -394 0 -394 0 0 -75 0 -75 1229 0 c973 0 1231 3 1238 12 4 7
87 183 184 391 l177 377 -284 0 c-277 0 -284 0 -284 20 0 20 7 20 293 20 l293
0 17 35 17 35 -425 0 c-418 0 -425 0 -425 20 0 20 7 20 433 20 l433 0 30 61
30 61 248 -534 c136 -293 250 -535 252 -537 3 -3 34 9 69 27 l65 32 -44 92
c-23 51 -235 507 -471 1013 -235 506 -436 928 -447 938 -23 20 -54 20 -118 3z"/>
<path d="M4047 3009 c-56 -13 -89 -33 -129 -77 -137 -152 -51 -386 154 -417
42 -6 50 -4 72 18 74 74 79 372 9 455 -22 26 -57 33 -106 21z"/>
<path d="M610 1974 c-271 -58 -480 -246 -571 -514 -31 -89 -33 -104 -33 -230
0 -152 14 -219 69 -335 127 -265 395 -435 686 -435 211 0 380 66 530 207 108
102 197 253 224 381 l7 32 -146 0 -145 0 -30 -62 c-141 -291 -521 -366 -754
-150 -115 107 -162 224 -155 384 3 82 8 103 40 171 139 291 490 371 744 170
54 -43 113 -124 135 -185 l13 -38 149 0 149 0 -7 33 c-11 51 -55 156 -93 222
-44 75 -178 209 -254 254 -172 100 -375 135 -558 95z"/>
<path d="M4211 1979 c-24 -5 -45 -10 -48 -12 -2 -2 24 -62 58 -134 l61 -130
76 -1 c190 -2 346 -104 430 -279 32 -68 37 -89 40 -171 7 -160 -40 -277 -155
-384 -232 -215 -615 -140 -752 147 -85 177 -61 365 65 519 l44 55 -59 126
c-32 69 -61 129 -65 132 -12 12 -174 -163 -214 -232 -112 -191 -135 -432 -63
-641 38 -111 81 -182 165 -271 155 -165 335 -242 562 -243 517 -1 888 511 725
999 -90 268 -303 460 -573 515 -82 17 -224 19 -297 5z"/>
</g>
</svg>
