<?xml version="1.0" standalone="no"?>
<!DOCTYPE svg PUBLIC "-//W3C//DTD SVG 20010904//EN"
 "http://www.w3.org/TR/2001/REC-SVG-20010904/DTD/svg10.dtd">
<svg version="1.0" xmlns="http://www.w3.org/2000/svg"
 width="512.000000pt" height="512.000000pt" viewBox="0 0 512.000000 512.000000"
 preserveAspectRatio="xMidYMid meet">

<g transform="translate(0.000000,512.000000) scale(0.100000,-0.100000)"
fill="#000000" stroke="none">
<path d="M310 3828 c-42 -26 -60 -45 -82 -87 l-28 -53 0 -1000 c0 -721 3
-1011 11 -1039 23 -76 113 -149 182 -149 l27 0 0 98 c0 152 45 272 139 370
294 307 795 181 912 -228 7 -25 13 -89 13 -142 l0 -98 970 0 971 0 -3 79 c-8
159 51 304 164 410 218 204 537 202 743 -6 115 -117 168 -253 158 -405 l-5
-78 136 0 c117 0 142 3 179 21 51 25 96 76 112 128 14 49 15 781 1 936 -14
150 -137 918 -157 980 -36 113 -119 205 -232 259 l-66 31 -2045 3 -2046 2 -54
-32z m960 -613 l0 -425 -425 0 -425 0 0 396 0 396 29 29 29 29 396 0 396 0 0
-425z m1080 0 l0 -425 -430 0 -430 0 0 425 0 425 430 0 430 0 0 -425z m1070 0
l0 -425 -430 0 -430 0 0 425 0 425 430 0 430 0 0 -425z m1015 406 c44 -19 91
-69 107 -110 21 -55 158 -937 158 -1017 l0 -34 -372 0 -373 0 -162 162 -163
163 0 427 0 428 383 0 c349 0 385 -2 422 -19z"/>
<path d="M857 1970 c-100 -25 -191 -101 -239 -198 -44 -89 -51 -206 -18 -295
96 -255 421 -328 610 -138 92 93 132 208 111 325 -31 178 -175 306 -351 312
-41 2 -92 -1 -113 -6z"/>
<path d="M3838 1961 c-321 -106 -345 -549 -38 -695 58 -27 75 -31 155 -31 82
0 97 3 156 32 80 39 150 111 187 191 23 48 27 71 27 147 0 80 -4 97 -31 155
-82 172 -279 260 -456 201z"/>
</g>
</svg>
