<?xml version="1.0" standalone="no"?>
<!DOCTYPE svg PUBLIC "-//W3C//DTD SVG 20010904//EN"
 "http://www.w3.org/TR/2001/REC-SVG-20010904/DTD/svg10.dtd">
<svg version="1.0" xmlns="http://www.w3.org/2000/svg"
 width="512.000000pt" height="512.000000pt" viewBox="0 0 512.000000 512.000000"
 preserveAspectRatio="xMidYMid meet">

<g transform="translate(0.000000,512.000000) scale(0.100000,-0.100000)"
fill="#000000" stroke="none">
<path d="M1023 3649 c-34 -10 -86 -36 -116 -57 -30 -20 -215 -183 -410 -362
-290 -265 -361 -335 -382 -376 l-26 -52 3 -323 3 -324 32 -67 c43 -91 113
-159 210 -206 68 -32 89 -37 170 -40 l93 -4 0 38 c1 106 56 228 145 322 332
352 953 211 1070 -243 8 -32 15 -72 15 -87 l0 -28 728 0 727 0 12 74 c35 221
206 399 443 461 86 23 244 24 330 2 116 -30 207 -82 290 -166 103 -103 159
-221 160 -333 l0 -38 173 0 c190 0 225 9 279 66 52 56 58 87 58 293 0 105 -5
214 -11 243 -28 133 -137 273 -266 340 -128 68 -144 70 -503 77 -262 5 -330 9
-352 21 -15 8 -202 173 -415 365 -240 216 -407 359 -437 374 -105 52 -85 51
-1056 50 -869 0 -907 -1 -967 -20z m807 -484 l0 -305 -707 0 c-696 0 -707 0
-688 19 11 10 154 141 319 290 215 195 310 274 340 285 33 12 110 15 389 15
l347 1 0 -305z m1095 283 c23 -12 261 -225 654 -584 2 -2 -341 -4 -762 -4
l-767 0 0 298 c0 164 3 302 7 306 4 4 194 6 423 4 364 -3 419 -5 445 -20z"/>
<path d="M1068 2221 c-204 -66 -331 -256 -297 -446 22 -123 116 -244 233 -299
209 -99 472 -34 591 148 146 222 35 505 -233 595 -79 27 -213 28 -294 2z"/>
<path d="M3756 2219 c-267 -92 -376 -373 -231 -595 153 -233 524 -262 718 -55
209 223 110 558 -194 652 -83 26 -214 25 -293 -2z"/>
</g>
</svg>
